<svg aria-roledescription="er" role="graphics-document document" viewBox="0 0 603.307373046875 1169" style="max-width: 603.307px; background-color: white;" xmlns:xlink="http://www.w3.org/1999/xlink" xmlns="http://www.w3.org/2000/svg" width="100%" id="mermaid-0"><style>#mermaid-0{font-family:"trebuchet ms",verdana,arial,sans-serif;font-size:16px;fill:#000000;}#mermaid-0 .error-icon{fill:#552222;}#mermaid-0 .error-text{fill:#552222;stroke:#552222;}#mermaid-0 .edge-thickness-normal{stroke-width:2px;}#mermaid-0 .edge-thickness-thick{stroke-width:3.5px;}#mermaid-0 .edge-pattern-solid{stroke-dasharray:0;}#mermaid-0 .edge-pattern-dashed{stroke-dasharray:3;}#mermaid-0 .edge-pattern-dotted{stroke-dasharray:2;}#mermaid-0 .marker{fill:#000000;stroke:#000000;}#mermaid-0 .marker.cross{stroke:#000000;}#mermaid-0 svg{font-family:"trebuchet ms",verdana,arial,sans-serif;font-size:16px;}#mermaid-0 .entityBox{fill:#cde498;stroke:#13540c;}#mermaid-0 .attributeBoxOdd{fill:#ffffff;stroke:#13540c;}#mermaid-0 .attributeBoxEven{fill:#f2f2f2;stroke:#13540c;}#mermaid-0 .relationshipLabelBox{fill:hsl(78.1578947368, 58.4615384615%, 84.5098039216%);opacity:0.7;background-color:hsl(78.1578947368, 58.4615384615%, 84.5098039216%);}#mermaid-0 .relationshipLabelBox rect{opacity:0.5;}#mermaid-0 .relationshipLine{stroke:#000000;}#mermaid-0 .entityTitleText{text-anchor:middle;font-size:18px;fill:#000000;}#mermaid-0 :root{--mermaid-font-family:"trebuchet ms",verdana,arial,sans-serif;}</style><g/><defs><marker orient="auto" markerHeight="18" markerWidth="18" refY="9" refX="0" id="ONLY_ONE_START"><path d="M9,0 L9,18 M15,0 L15,18" fill="none" stroke="gray"/></marker></defs><defs><marker orient="auto" markerHeight="18" markerWidth="18" refY="9" refX="18" id="ONLY_ONE_END"><path d="M3,0 L3,18 M9,0 L9,18" fill="none" stroke="gray"/></marker></defs><defs><marker orient="auto" markerHeight="18" markerWidth="30" refY="9" refX="0" id="ZERO_OR_ONE_START"><circle r="6" cy="9" cx="21" fill="white" stroke="gray"/><path d="M9,0 L9,18" fill="none" stroke="gray"/></marker></defs><defs><marker orient="auto" markerHeight="18" markerWidth="30" refY="9" refX="30" id="ZERO_OR_ONE_END"><circle r="6" cy="9" cx="9" fill="white" stroke="gray"/><path d="M21,0 L21,18" fill="none" stroke="gray"/></marker></defs><defs><marker orient="auto" markerHeight="36" markerWidth="45" refY="18" refX="18" id="ONE_OR_MORE_START"><path d="M0,18 Q 18,0 36,18 Q 18,36 0,18 M42,9 L42,27" fill="none" stroke="gray"/></marker></defs><defs><marker orient="auto" markerHeight="36" markerWidth="45" refY="18" refX="27" id="ONE_OR_MORE_END"><path d="M3,9 L3,27 M9,18 Q27,0 45,18 Q27,36 9,18" fill="none" stroke="gray"/></marker></defs><defs><marker orient="auto" markerHeight="36" markerWidth="57" refY="18" refX="18" id="ZERO_OR_MORE_START"><circle r="6" cy="18" cx="48" fill="white" stroke="gray"/><path d="M0,18 Q18,0 36,18 Q18,36 0,18" fill="none" stroke="gray"/></marker></defs><defs><marker orient="auto" markerHeight="36" markerWidth="57" refY="18" refX="39" id="ZERO_OR_MORE_END"><circle r="6" cy="18" cx="9" fill="white" stroke="gray"/><path d="M21,18 Q39,0 57,18 Q39,36 21,18" fill="none" stroke="gray"/></marker></defs><path style="stroke: gray; fill: none;" marker-start="url(#ZERO_OR_ONE_START)" marker-end="url(#ONLY_ONE_END)" d="M493.3166198730469,983L493.3166198730469,991.3333333333334C493.3166198730469,999.6666666666666,493.3166198730469,1016.3333333333334,493.3166198730469,1033C493.3166198730469,1049.6666666666667,493.3166198730469,1066.3333333333333,493.3166198730469,1074.6666666666667L493.3166198730469,1083" class="er relationshipLine"/><path style="stroke: gray; fill: none;" marker-start="url(#ZERO_OR_ONE_START)" marker-end="url(#ONLY_ONE_END)" d="M70,399L70,414.3333333333333C70,429.6666666666667,70,460.3333333333333,73.33333333333333,484C76.66666666666667,507.6666666666667,83.33333333333333,524.3333333333334,86.66666666666667,532.6666666666666L90,541" class="er relationshipLine"/><path style="stroke: gray; fill: none;" marker-start="url(#ZERO_OR_MORE_START)" marker-end="url(#ONLY_ONE_END)" d="M273.1523815557218,441L266.9559425053378,449.3333333333333C260.75950345495386,457.6666666666667,248.3666253541859,474.3333333333333,234.43860315357406,491C220.51058095296221,507.6666666666667,205.04741465250652,524.3333333333334,197.31583150227866,532.6666666666666L189.5842483520508,541" class="er relationshipLine"/><path style="stroke: gray; fill: none;" marker-start="url(#ZERO_OR_MORE_START)" marker-end="url(#ZERO_OR_ONE_END)" d="M386.3684317250602,441L389.0308385408216,449.3333333333333C391.6932453565831,457.6666666666667,397.018058988106,474.3333333333333,399.68046580386743,499.75C402.3428726196289,525.1666666666666,402.3428726196289,559.3333333333334,402.3428726196289,576.4166666666666L402.3428726196289,593.5" class="er relationshipLine"/><path style="stroke: gray; fill: none;" marker-start="url(#ZERO_OR_MORE_START)" marker-end="url(#ONLY_ONE_END)" d="M402.3428726196289,638.5L402.3428726196289,655.5833333333334C402.3428726196289,672.6666666666666,402.3428726196289,706.8333333333334,407.53543810212994,732.25C412.7280035846309,757.6666666666666,423.113134549633,774.3333333333334,428.305700032134,782.6666666666666L433.4982655146351,791" class="er relationshipLine"/><path style="stroke: gray; fill: none;" marker-start="url(#ZERO_OR_MORE_START)" marker-end="url(#ONLY_ONE_END)" d="M508.22046602689306,128L518.2364916679187,136.33333333333334C528.2525173089443,144.66666666666666,548.2845685909956,161.33333333333334,558.3005942320212,195.75C568.3166198730469,230.16666666666666,568.3166198730469,282.3333333333333,568.3166198730469,334.5C568.3166198730469,386.6666666666667,568.3166198730469,438.8333333333333,568.3166198730469,485.75C568.3166198730469,532.6666666666666,568.3166198730469,574.3333333333334,568.3166198730469,616C568.3166198730469,657.6666666666666,568.3166198730469,699.3333333333334,564.0357979552386,728.5C559.7549760374304,757.6666666666666,551.193332201814,774.3333333333334,546.9125102840057,782.6666666666666L542.6316883661975,791" class="er relationshipLine"/><path style="stroke: gray; fill: none;" marker-start="url(#ZERO_OR_MORE_START)" marker-end="url(#ONLY_ONE_END)" d="M396.08025110684906,128L388.7906880256457,136.33333333333334C381.5011249444424,144.66666666666666,366.92199878203564,161.33333333333334,359.6324357008323,178C352.3428726196289,194.66666666666666,352.3428726196289,211.33333333333334,352.3428726196289,219.66666666666666L352.3428726196289,228" class="er relationshipLine"/><g transform="translate(443.3166198730469,1083 )" id="entity-Role-8dbdbbc4-0419-5464-aae6-f142fb2ece67"><rect height="66" width="100" y="0" x="0" class="er entityBox"/><text style="dominant-baseline: middle; text-anchor: middle; font-size: 12px;" transform="translate(50,12)" y="0" x="0" id="text-entity-Role-8dbdbbc4-0419-5464-aae6-f142fb2ece67" class="er entityLabel">Role</text><rect height="21" width="50" y="24" x="0" class="er attributeBoxOdd"/><text style="dominant-baseline: middle; font-size: 10.2px;" transform="translate(5,34.5)" y="0" x="0" id="text-entity-Role-8dbdbbc4-0419-5464-aae6-f142fb2ece67-attr-1-type" class="er entityLabel">USER</text><rect height="21" width="50" y="24" x="50" class="er attributeBoxOdd"/><text style="dominant-baseline: middle; font-size: 10.2px;" transform="translate(55,34.5)" y="0" x="0" id="text-entity-Role-8dbdbbc4-0419-5464-aae6-f142fb2ece67-attr-1-name" class="er entityLabel">USER</text><rect height="21" width="50" y="45" x="0" class="er attributeBoxEven"/><text style="dominant-baseline: middle; font-size: 10.2px;" transform="translate(5,55.5)" y="0" x="0" id="text-entity-Role-8dbdbbc4-0419-5464-aae6-f142fb2ece67-attr-2-type" class="er entityLabel">ADMIN</text><rect height="21" width="50" y="45" x="50" class="er attributeBoxEven"/><text style="dominant-baseline: middle; font-size: 10.2px;" transform="translate(55,55.5)" y="0" x="0" id="text-entity-Role-8dbdbbc4-0419-5464-aae6-f142fb2ece67-attr-2-name" class="er entityLabel">ADMIN</text></g><g transform="translate(403.3258514404297,791 )" id="entity-users-33ae1e26-be31-5c1d-bf65-e859e9d0308e"><rect height="192" width="179.98153686523438" y="0" x="0" class="er entityBox"/><text style="dominant-baseline: middle; text-anchor: middle; font-size: 12px;" transform="translate(89.99076843261719,12)" y="0" x="0" id="text-entity-users-33ae1e26-be31-5c1d-bf65-e859e9d0308e" class="er entityLabel">users</text><rect height="21" width="54.113128662109375" y="24" x="0" class="er attributeBoxOdd"/><text style="dominant-baseline: middle; font-size: 10.2px;" transform="translate(5,34.5)" y="0" x="0" id="text-entity-users-33ae1e26-be31-5c1d-bf65-e859e9d0308e-attr-1-type" class="er entityLabel">String</text><rect height="21" width="56.620208740234375" y="24" x="54.113128662109375" class="er attributeBoxOdd"/><text style="dominant-baseline: middle; font-size: 10.2px;" transform="translate(59.113128662109375,34.5)" y="0" x="0" id="text-entity-users-33ae1e26-be31-5c1d-bf65-e859e9d0308e-attr-1-name" class="er entityLabel">id</text><rect height="21" width="23.79498291015625" y="24" x="110.73333740234375" class="er attributeBoxOdd"/><text style="dominant-baseline: middle; font-size: 10.2px;" transform="translate(115.73333740234375,34.5)" y="0" x="0" id="text-entity-users-33ae1e26-be31-5c1d-bf65-e859e9d0308e-attr-1-key" class="er entityLabel">PK</text><rect height="21" width="45.453216552734375" y="24" x="134.5283203125" class="er attributeBoxOdd"/><text style="dominant-baseline: middle; font-size: 10.2px;" transform="translate(139.5283203125,34.5)" y="0" x="0" id="text-entity-users-33ae1e26-be31-5c1d-bf65-e859e9d0308e-attr-1-comment" class="er entityLabel"/><rect height="21" width="54.113128662109375" y="45" x="0" class="er attributeBoxEven"/><text style="dominant-baseline: middle; font-size: 10.2px;" transform="translate(5,55.5)" y="0" x="0" id="text-entity-users-33ae1e26-be31-5c1d-bf65-e859e9d0308e-attr-2-type" class="er entityLabel">String</text><rect height="21" width="56.620208740234375" y="45" x="54.113128662109375" class="er attributeBoxEven"/><text style="dominant-baseline: middle; font-size: 10.2px;" transform="translate(59.113128662109375,55.5)" y="0" x="0" id="text-entity-users-33ae1e26-be31-5c1d-bf65-e859e9d0308e-attr-2-name" class="er entityLabel">name</text><rect height="21" width="23.79498291015625" y="45" x="110.73333740234375" class="er attributeBoxEven"/><text style="dominant-baseline: middle; font-size: 10.2px;" transform="translate(115.73333740234375,55.5)" y="0" x="0" id="text-entity-users-33ae1e26-be31-5c1d-bf65-e859e9d0308e-attr-2-key" class="er entityLabel"/><rect height="21" width="45.453216552734375" y="45" x="134.5283203125" class="er attributeBoxEven"/><text style="dominant-baseline: middle; font-size: 10.2px;" transform="translate(139.5283203125,55.5)" y="0" x="0" id="text-entity-users-33ae1e26-be31-5c1d-bf65-e859e9d0308e-attr-2-comment" class="er entityLabel"/><rect height="21" width="54.113128662109375" y="66" x="0" class="er attributeBoxOdd"/><text style="dominant-baseline: middle; font-size: 10.2px;" transform="translate(5,76.5)" y="0" x="0" id="text-entity-users-33ae1e26-be31-5c1d-bf65-e859e9d0308e-attr-3-type" class="er entityLabel">String</text><rect height="21" width="56.620208740234375" y="66" x="54.113128662109375" class="er attributeBoxOdd"/><text style="dominant-baseline: middle; font-size: 10.2px;" transform="translate(59.113128662109375,76.5)" y="0" x="0" id="text-entity-users-33ae1e26-be31-5c1d-bf65-e859e9d0308e-attr-3-name" class="er entityLabel">email</text><rect height="21" width="23.79498291015625" y="66" x="110.73333740234375" class="er attributeBoxOdd"/><text style="dominant-baseline: middle; font-size: 10.2px;" transform="translate(115.73333740234375,76.5)" y="0" x="0" id="text-entity-users-33ae1e26-be31-5c1d-bf65-e859e9d0308e-attr-3-key" class="er entityLabel"/><rect height="21" width="45.453216552734375" y="66" x="134.5283203125" class="er attributeBoxOdd"/><text style="dominant-baseline: middle; font-size: 10.2px;" transform="translate(139.5283203125,76.5)" y="0" x="0" id="text-entity-users-33ae1e26-be31-5c1d-bf65-e859e9d0308e-attr-3-comment" class="er entityLabel"/><rect height="21" width="54.113128662109375" y="87" x="0" class="er attributeBoxEven"/><text style="dominant-baseline: middle; font-size: 10.2px;" transform="translate(5,97.5)" y="0" x="0" id="text-entity-users-33ae1e26-be31-5c1d-bf65-e859e9d0308e-attr-4-type" class="er entityLabel">String</text><rect height="21" width="56.620208740234375" y="87" x="54.113128662109375" class="er attributeBoxEven"/><text style="dominant-baseline: middle; font-size: 10.2px;" transform="translate(59.113128662109375,97.5)" y="0" x="0" id="text-entity-users-33ae1e26-be31-5c1d-bf65-e859e9d0308e-attr-4-name" class="er entityLabel">password</text><rect height="21" width="23.79498291015625" y="87" x="110.73333740234375" class="er attributeBoxEven"/><text style="dominant-baseline: middle; font-size: 10.2px;" transform="translate(115.73333740234375,97.5)" y="0" x="0" id="text-entity-users-33ae1e26-be31-5c1d-bf65-e859e9d0308e-attr-4-key" class="er entityLabel"/><rect height="21" width="45.453216552734375" y="87" x="134.5283203125" class="er attributeBoxEven"/><text style="dominant-baseline: middle; font-size: 10.2px;" transform="translate(139.5283203125,97.5)" y="0" x="0" id="text-entity-users-33ae1e26-be31-5c1d-bf65-e859e9d0308e-attr-4-comment" class="er entityLabel"/><rect height="21" width="54.113128662109375" y="108" x="0" class="er attributeBoxOdd"/><text style="dominant-baseline: middle; font-size: 10.2px;" transform="translate(5,118.5)" y="0" x="0" id="text-entity-users-33ae1e26-be31-5c1d-bf65-e859e9d0308e-attr-5-type" class="er entityLabel">DateTime</text><rect height="21" width="56.620208740234375" y="108" x="54.113128662109375" class="er attributeBoxOdd"/><text style="dominant-baseline: middle; font-size: 10.2px;" transform="translate(59.113128662109375,118.5)" y="0" x="0" id="text-entity-users-33ae1e26-be31-5c1d-bf65-e859e9d0308e-attr-5-name" class="er entityLabel">createdAt</text><rect height="21" width="23.79498291015625" y="108" x="110.73333740234375" class="er attributeBoxOdd"/><text style="dominant-baseline: middle; font-size: 10.2px;" transform="translate(115.73333740234375,118.5)" y="0" x="0" id="text-entity-users-33ae1e26-be31-5c1d-bf65-e859e9d0308e-attr-5-key" class="er entityLabel"/><rect height="21" width="45.453216552734375" y="108" x="134.5283203125" class="er attributeBoxOdd"/><text style="dominant-baseline: middle; font-size: 10.2px;" transform="translate(139.5283203125,118.5)" y="0" x="0" id="text-entity-users-33ae1e26-be31-5c1d-bf65-e859e9d0308e-attr-5-comment" class="er entityLabel"/><rect height="21" width="54.113128662109375" y="129" x="0" class="er attributeBoxEven"/><text style="dominant-baseline: middle; font-size: 10.2px;" transform="translate(5,139.5)" y="0" x="0" id="text-entity-users-33ae1e26-be31-5c1d-bf65-e859e9d0308e-attr-6-type" class="er entityLabel">DateTime</text><rect height="21" width="56.620208740234375" y="129" x="54.113128662109375" class="er attributeBoxEven"/><text style="dominant-baseline: middle; font-size: 10.2px;" transform="translate(59.113128662109375,139.5)" y="0" x="0" id="text-entity-users-33ae1e26-be31-5c1d-bf65-e859e9d0308e-attr-6-name" class="er entityLabel">updatedAt</text><rect height="21" width="23.79498291015625" y="129" x="110.73333740234375" class="er attributeBoxEven"/><text style="dominant-baseline: middle; font-size: 10.2px;" transform="translate(115.73333740234375,139.5)" y="0" x="0" id="text-entity-users-33ae1e26-be31-5c1d-bf65-e859e9d0308e-attr-6-key" class="er entityLabel"/><rect height="21" width="45.453216552734375" y="129" x="134.5283203125" class="er attributeBoxEven"/><text style="dominant-baseline: middle; font-size: 10.2px;" transform="translate(139.5283203125,139.5)" y="0" x="0" id="text-entity-users-33ae1e26-be31-5c1d-bf65-e859e9d0308e-attr-6-comment" class="er entityLabel"/><rect height="21" width="54.113128662109375" y="150" x="0" class="er attributeBoxOdd"/><text style="dominant-baseline: middle; font-size: 10.2px;" transform="translate(5,160.5)" y="0" x="0" id="text-entity-users-33ae1e26-be31-5c1d-bf65-e859e9d0308e-attr-7-type" class="er entityLabel">String</text><rect height="21" width="56.620208740234375" y="150" x="54.113128662109375" class="er attributeBoxOdd"/><text style="dominant-baseline: middle; font-size: 10.2px;" transform="translate(59.113128662109375,160.5)" y="0" x="0" id="text-entity-users-33ae1e26-be31-5c1d-bf65-e859e9d0308e-attr-7-name" class="er entityLabel">imageId</text><rect height="21" width="23.79498291015625" y="150" x="110.73333740234375" class="er attributeBoxOdd"/><text style="dominant-baseline: middle; font-size: 10.2px;" transform="translate(115.73333740234375,160.5)" y="0" x="0" id="text-entity-users-33ae1e26-be31-5c1d-bf65-e859e9d0308e-attr-7-key" class="er entityLabel"/><rect height="21" width="45.453216552734375" y="150" x="134.5283203125" class="er attributeBoxOdd"/><text style="dominant-baseline: middle; font-size: 10.2px;" transform="translate(139.5283203125,160.5)" y="0" x="0" id="text-entity-users-33ae1e26-be31-5c1d-bf65-e859e9d0308e-attr-7-comment" class="er entityLabel">nullable</text><rect height="21" width="54.113128662109375" y="171" x="0" class="er attributeBoxEven"/><text style="dominant-baseline: middle; font-size: 10.2px;" transform="translate(5,181.5)" y="0" x="0" id="text-entity-users-33ae1e26-be31-5c1d-bf65-e859e9d0308e-attr-8-type" class="er entityLabel">Role</text><rect height="21" width="56.620208740234375" y="171" x="54.113128662109375" class="er attributeBoxEven"/><text style="dominant-baseline: middle; font-size: 10.2px;" transform="translate(59.113128662109375,181.5)" y="0" x="0" id="text-entity-users-33ae1e26-be31-5c1d-bf65-e859e9d0308e-attr-8-name" class="er entityLabel">role</text><rect height="21" width="23.79498291015625" y="171" x="110.73333740234375" class="er attributeBoxEven"/><text style="dominant-baseline: middle; font-size: 10.2px;" transform="translate(115.73333740234375,181.5)" y="0" x="0" id="text-entity-users-33ae1e26-be31-5c1d-bf65-e859e9d0308e-attr-8-key" class="er entityLabel"/><rect height="21" width="45.453216552734375" y="171" x="134.5283203125" class="er attributeBoxEven"/><text style="dominant-baseline: middle; font-size: 10.2px;" transform="translate(139.5283203125,181.5)" y="0" x="0" id="text-entity-users-33ae1e26-be31-5c1d-bf65-e859e9d0308e-attr-8-comment" class="er entityLabel"/></g><g transform="translate(20,270 )" id="entity-address-30c0d688-dbdc-5f86-9bc6-9a2d2ce26984"><rect height="129" width="100" y="0" x="0" class="er entityBox"/><text style="dominant-baseline: middle; text-anchor: middle; font-size: 12px;" transform="translate(50,12)" y="0" x="0" id="text-entity-address-30c0d688-dbdc-5f86-9bc6-9a2d2ce26984" class="er entityLabel">address</text><rect height="21" width="38.15027872721354" y="24" x="0" class="er attributeBoxOdd"/><text style="dominant-baseline: middle; font-size: 10.2px;" transform="translate(5,34.5)" y="0" x="0" id="text-entity-address-30c0d688-dbdc-5f86-9bc6-9a2d2ce26984-attr-1-type" class="er entityLabel">String</text><rect height="21" width="36.85151163736979" y="24" x="38.15027872721354" class="er attributeBoxOdd"/><text style="dominant-baseline: middle; font-size: 10.2px;" transform="translate(43.15027872721354,34.5)" y="0" x="0" id="text-entity-address-30c0d688-dbdc-5f86-9bc6-9a2d2ce26984-attr-1-name" class="er entityLabel">id</text><rect height="21" width="24.998209635416668" y="24" x="75.00179036458333" class="er attributeBoxOdd"/><text style="dominant-baseline: middle; font-size: 10.2px;" transform="translate(80.00179036458333,34.5)" y="0" x="0" id="text-entity-address-30c0d688-dbdc-5f86-9bc6-9a2d2ce26984-attr-1-key" class="er entityLabel">PK</text><rect height="21" width="38.15027872721354" y="45" x="0" class="er attributeBoxEven"/><text style="dominant-baseline: middle; font-size: 10.2px;" transform="translate(5,55.5)" y="0" x="0" id="text-entity-address-30c0d688-dbdc-5f86-9bc6-9a2d2ce26984-attr-2-type" class="er entityLabel">String</text><rect height="21" width="36.85151163736979" y="45" x="38.15027872721354" class="er attributeBoxEven"/><text style="dominant-baseline: middle; font-size: 10.2px;" transform="translate(43.15027872721354,55.5)" y="0" x="0" id="text-entity-address-30c0d688-dbdc-5f86-9bc6-9a2d2ce26984-attr-2-name" class="er entityLabel">street</text><rect height="21" width="24.998209635416668" y="45" x="75.00179036458333" class="er attributeBoxEven"/><text style="dominant-baseline: middle; font-size: 10.2px;" transform="translate(80.00179036458333,55.5)" y="0" x="0" id="text-entity-address-30c0d688-dbdc-5f86-9bc6-9a2d2ce26984-attr-2-key" class="er entityLabel"/><rect height="21" width="38.15027872721354" y="66" x="0" class="er attributeBoxOdd"/><text style="dominant-baseline: middle; font-size: 10.2px;" transform="translate(5,76.5)" y="0" x="0" id="text-entity-address-30c0d688-dbdc-5f86-9bc6-9a2d2ce26984-attr-3-type" class="er entityLabel">String</text><rect height="21" width="36.85151163736979" y="66" x="38.15027872721354" class="er attributeBoxOdd"/><text style="dominant-baseline: middle; font-size: 10.2px;" transform="translate(43.15027872721354,76.5)" y="0" x="0" id="text-entity-address-30c0d688-dbdc-5f86-9bc6-9a2d2ce26984-attr-3-name" class="er entityLabel">city</text><rect height="21" width="24.998209635416668" y="66" x="75.00179036458333" class="er attributeBoxOdd"/><text style="dominant-baseline: middle; font-size: 10.2px;" transform="translate(80.00179036458333,76.5)" y="0" x="0" id="text-entity-address-30c0d688-dbdc-5f86-9bc6-9a2d2ce26984-attr-3-key" class="er entityLabel"/><rect height="21" width="38.15027872721354" y="87" x="0" class="er attributeBoxEven"/><text style="dominant-baseline: middle; font-size: 10.2px;" transform="translate(5,97.5)" y="0" x="0" id="text-entity-address-30c0d688-dbdc-5f86-9bc6-9a2d2ce26984-attr-4-type" class="er entityLabel">String</text><rect height="21" width="36.85151163736979" y="87" x="38.15027872721354" class="er attributeBoxEven"/><text style="dominant-baseline: middle; font-size: 10.2px;" transform="translate(43.15027872721354,97.5)" y="0" x="0" id="text-entity-address-30c0d688-dbdc-5f86-9bc6-9a2d2ce26984-attr-4-name" class="er entityLabel">state</text><rect height="21" width="24.998209635416668" y="87" x="75.00179036458333" class="er attributeBoxEven"/><text style="dominant-baseline: middle; font-size: 10.2px;" transform="translate(80.00179036458333,97.5)" y="0" x="0" id="text-entity-address-30c0d688-dbdc-5f86-9bc6-9a2d2ce26984-attr-4-key" class="er entityLabel"/><rect height="21" width="38.15027872721354" y="108" x="0" class="er attributeBoxOdd"/><text style="dominant-baseline: middle; font-size: 10.2px;" transform="translate(5,118.5)" y="0" x="0" id="text-entity-address-30c0d688-dbdc-5f86-9bc6-9a2d2ce26984-attr-5-type" class="er entityLabel">String</text><rect height="21" width="36.85151163736979" y="108" x="38.15027872721354" class="er attributeBoxOdd"/><text style="dominant-baseline: middle; font-size: 10.2px;" transform="translate(43.15027872721354,118.5)" y="0" x="0" id="text-entity-address-30c0d688-dbdc-5f86-9bc6-9a2d2ce26984-attr-5-name" class="er entityLabel">zip</text><rect height="21" width="24.998209635416668" y="108" x="75.00179036458333" class="er attributeBoxOdd"/><text style="dominant-baseline: middle; font-size: 10.2px;" transform="translate(80.00179036458333,118.5)" y="0" x="0" id="text-entity-address-30c0d688-dbdc-5f86-9bc6-9a2d2ce26984-attr-5-key" class="er entityLabel"/></g><g transform="translate(37.261749267578125,541 )" id="entity-buildings-7e60d4df-d8a3-56bf-ba17-04c5f4611f79"><rect height="150" width="165.47650146484375" y="0" x="0" class="er entityBox"/><text style="dominant-baseline: middle; text-anchor: middle; font-size: 12px;" transform="translate(82.73825073242188,12)" y="0" x="0" id="text-entity-buildings-7e60d4df-d8a3-56bf-ba17-04c5f4611f79" class="er entityLabel">buildings</text><rect height="21" width="36.947052001953125" y="24" x="0" class="er attributeBoxOdd"/><text style="dominant-baseline: middle; font-size: 10.2px;" transform="translate(5,34.5)" y="0" x="0" id="text-entity-buildings-7e60d4df-d8a3-56bf-ba17-04c5f4611f79-attr-1-type" class="er entityLabel">String</text><rect height="21" width="59.28125" y="24" x="36.947052001953125" class="er attributeBoxOdd"/><text style="dominant-baseline: middle; font-size: 10.2px;" transform="translate(41.947052001953125,34.5)" y="0" x="0" id="text-entity-buildings-7e60d4df-d8a3-56bf-ba17-04c5f4611f79-attr-1-name" class="er entityLabel">id</text><rect height="21" width="23.79498291015625" y="24" x="96.22830200195312" class="er attributeBoxOdd"/><text style="dominant-baseline: middle; font-size: 10.2px;" transform="translate(101.22830200195312,34.5)" y="0" x="0" id="text-entity-buildings-7e60d4df-d8a3-56bf-ba17-04c5f4611f79-attr-1-key" class="er entityLabel">PK</text><rect height="21" width="45.453216552734375" y="24" x="120.02328491210938" class="er attributeBoxOdd"/><text style="dominant-baseline: middle; font-size: 10.2px;" transform="translate(125.02328491210938,34.5)" y="0" x="0" id="text-entity-buildings-7e60d4df-d8a3-56bf-ba17-04c5f4611f79-attr-1-comment" class="er entityLabel"/><rect height="21" width="36.947052001953125" y="45" x="0" class="er attributeBoxEven"/><text style="dominant-baseline: middle; font-size: 10.2px;" transform="translate(5,55.5)" y="0" x="0" id="text-entity-buildings-7e60d4df-d8a3-56bf-ba17-04c5f4611f79-attr-2-type" class="er entityLabel">String</text><rect height="21" width="59.28125" y="45" x="36.947052001953125" class="er attributeBoxEven"/><text style="dominant-baseline: middle; font-size: 10.2px;" transform="translate(41.947052001953125,55.5)" y="0" x="0" id="text-entity-buildings-7e60d4df-d8a3-56bf-ba17-04c5f4611f79-attr-2-name" class="er entityLabel">name</text><rect height="21" width="23.79498291015625" y="45" x="96.22830200195312" class="er attributeBoxEven"/><text style="dominant-baseline: middle; font-size: 10.2px;" transform="translate(101.22830200195312,55.5)" y="0" x="0" id="text-entity-buildings-7e60d4df-d8a3-56bf-ba17-04c5f4611f79-attr-2-key" class="er entityLabel"/><rect height="21" width="45.453216552734375" y="45" x="120.02328491210938" class="er attributeBoxEven"/><text style="dominant-baseline: middle; font-size: 10.2px;" transform="translate(125.02328491210938,55.5)" y="0" x="0" id="text-entity-buildings-7e60d4df-d8a3-56bf-ba17-04c5f4611f79-attr-2-comment" class="er entityLabel"/><rect height="21" width="36.947052001953125" y="66" x="0" class="er attributeBoxOdd"/><text style="dominant-baseline: middle; font-size: 10.2px;" transform="translate(5,76.5)" y="0" x="0" id="text-entity-buildings-7e60d4df-d8a3-56bf-ba17-04c5f4611f79-attr-3-type" class="er entityLabel">String</text><rect height="21" width="59.28125" y="66" x="36.947052001953125" class="er attributeBoxOdd"/><text style="dominant-baseline: middle; font-size: 10.2px;" transform="translate(41.947052001953125,76.5)" y="0" x="0" id="text-entity-buildings-7e60d4df-d8a3-56bf-ba17-04c5f4611f79-attr-3-name" class="er entityLabel">description</text><rect height="21" width="23.79498291015625" y="66" x="96.22830200195312" class="er attributeBoxOdd"/><text style="dominant-baseline: middle; font-size: 10.2px;" transform="translate(101.22830200195312,76.5)" y="0" x="0" id="text-entity-buildings-7e60d4df-d8a3-56bf-ba17-04c5f4611f79-attr-3-key" class="er entityLabel"/><rect height="21" width="45.453216552734375" y="66" x="120.02328491210938" class="er attributeBoxOdd"/><text style="dominant-baseline: middle; font-size: 10.2px;" transform="translate(125.02328491210938,76.5)" y="0" x="0" id="text-entity-buildings-7e60d4df-d8a3-56bf-ba17-04c5f4611f79-attr-3-comment" class="er entityLabel">nullable</text><rect height="21" width="36.947052001953125" y="87" x="0" class="er attributeBoxEven"/><text style="dominant-baseline: middle; font-size: 10.2px;" transform="translate(5,97.5)" y="0" x="0" id="text-entity-buildings-7e60d4df-d8a3-56bf-ba17-04c5f4611f79-attr-4-type" class="er entityLabel">Int</text><rect height="21" width="59.28125" y="87" x="36.947052001953125" class="er attributeBoxEven"/><text style="dominant-baseline: middle; font-size: 10.2px;" transform="translate(41.947052001953125,97.5)" y="0" x="0" id="text-entity-buildings-7e60d4df-d8a3-56bf-ba17-04c5f4611f79-attr-4-name" class="er entityLabel">floors</text><rect height="21" width="23.79498291015625" y="87" x="96.22830200195312" class="er attributeBoxEven"/><text style="dominant-baseline: middle; font-size: 10.2px;" transform="translate(101.22830200195312,97.5)" y="0" x="0" id="text-entity-buildings-7e60d4df-d8a3-56bf-ba17-04c5f4611f79-attr-4-key" class="er entityLabel"/><rect height="21" width="45.453216552734375" y="87" x="120.02328491210938" class="er attributeBoxEven"/><text style="dominant-baseline: middle; font-size: 10.2px;" transform="translate(125.02328491210938,97.5)" y="0" x="0" id="text-entity-buildings-7e60d4df-d8a3-56bf-ba17-04c5f4611f79-attr-4-comment" class="er entityLabel"/><rect height="21" width="36.947052001953125" y="108" x="0" class="er attributeBoxOdd"/><text style="dominant-baseline: middle; font-size: 10.2px;" transform="translate(5,118.5)" y="0" x="0" id="text-entity-buildings-7e60d4df-d8a3-56bf-ba17-04c5f4611f79-attr-5-type" class="er entityLabel">String</text><rect height="21" width="59.28125" y="108" x="36.947052001953125" class="er attributeBoxOdd"/><text style="dominant-baseline: middle; font-size: 10.2px;" transform="translate(41.947052001953125,118.5)" y="0" x="0" id="text-entity-buildings-7e60d4df-d8a3-56bf-ba17-04c5f4611f79-attr-5-name" class="er entityLabel">amenities</text><rect height="21" width="23.79498291015625" y="108" x="96.22830200195312" class="er attributeBoxOdd"/><text style="dominant-baseline: middle; font-size: 10.2px;" transform="translate(101.22830200195312,118.5)" y="0" x="0" id="text-entity-buildings-7e60d4df-d8a3-56bf-ba17-04c5f4611f79-attr-5-key" class="er entityLabel"/><rect height="21" width="45.453216552734375" y="108" x="120.02328491210938" class="er attributeBoxOdd"/><text style="dominant-baseline: middle; font-size: 10.2px;" transform="translate(125.02328491210938,118.5)" y="0" x="0" id="text-entity-buildings-7e60d4df-d8a3-56bf-ba17-04c5f4611f79-attr-5-comment" class="er entityLabel"/><rect height="21" width="36.947052001953125" y="129" x="0" class="er attributeBoxEven"/><text style="dominant-baseline: middle; font-size: 10.2px;" transform="translate(5,139.5)" y="0" x="0" id="text-entity-buildings-7e60d4df-d8a3-56bf-ba17-04c5f4611f79-attr-6-type" class="er entityLabel">String</text><rect height="21" width="59.28125" y="129" x="36.947052001953125" class="er attributeBoxEven"/><text style="dominant-baseline: middle; font-size: 10.2px;" transform="translate(41.947052001953125,139.5)" y="0" x="0" id="text-entity-buildings-7e60d4df-d8a3-56bf-ba17-04c5f4611f79-attr-6-name" class="er entityLabel">image</text><rect height="21" width="23.79498291015625" y="129" x="96.22830200195312" class="er attributeBoxEven"/><text style="dominant-baseline: middle; font-size: 10.2px;" transform="translate(101.22830200195312,139.5)" y="0" x="0" id="text-entity-buildings-7e60d4df-d8a3-56bf-ba17-04c5f4611f79-attr-6-key" class="er entityLabel"/><rect height="21" width="45.453216552734375" y="129" x="120.02328491210938" class="er attributeBoxEven"/><text style="dominant-baseline: middle; font-size: 10.2px;" transform="translate(125.02328491210938,139.5)" y="0" x="0" id="text-entity-buildings-7e60d4df-d8a3-56bf-ba17-04c5f4611f79-attr-6-comment" class="er entityLabel">nullable</text></g><g transform="translate(270.39537811279297,228 )" id="entity-Apartment-16842c76-5203-59c6-bfcc-2014b847d247"><rect height="213" width="163.89498901367188" y="0" x="0" class="er entityBox"/><text style="dominant-baseline: middle; text-anchor: middle; font-size: 12px;" transform="translate(81.94749450683594,12)" y="0" x="0" id="text-entity-Apartment-16842c76-5203-59c6-bfcc-2014b847d247" class="er entityLabel">Apartment</text><rect height="21" width="47.390625" y="24" x="0" class="er attributeBoxOdd"/><text style="dominant-baseline: middle; font-size: 10.2px;" transform="translate(5,34.5)" y="0" x="0" id="text-entity-Apartment-16842c76-5203-59c6-bfcc-2014b847d247-attr-1-type" class="er entityLabel">String</text><rect height="21" width="92.70938110351562" y="24" x="47.390625" class="er attributeBoxOdd"/><text style="dominant-baseline: middle; font-size: 10.2px;" transform="translate(52.390625,34.5)" y="0" x="0" id="text-entity-Apartment-16842c76-5203-59c6-bfcc-2014b847d247-attr-1-name" class="er entityLabel">id</text><rect height="21" width="23.79498291015625" y="24" x="140.10000610351562" class="er attributeBoxOdd"/><text style="dominant-baseline: middle; font-size: 10.2px;" transform="translate(145.10000610351562,34.5)" y="0" x="0" id="text-entity-Apartment-16842c76-5203-59c6-bfcc-2014b847d247-attr-1-key" class="er entityLabel">PK</text><rect height="21" width="47.390625" y="45" x="0" class="er attributeBoxEven"/><text style="dominant-baseline: middle; font-size: 10.2px;" transform="translate(5,55.5)" y="0" x="0" id="text-entity-Apartment-16842c76-5203-59c6-bfcc-2014b847d247-attr-2-type" class="er entityLabel">Int</text><rect height="21" width="92.70938110351562" y="45" x="47.390625" class="er attributeBoxEven"/><text style="dominant-baseline: middle; font-size: 10.2px;" transform="translate(52.390625,55.5)" y="0" x="0" id="text-entity-Apartment-16842c76-5203-59c6-bfcc-2014b847d247-attr-2-name" class="er entityLabel">apartmentNumber</text><rect height="21" width="23.79498291015625" y="45" x="140.10000610351562" class="er attributeBoxEven"/><text style="dominant-baseline: middle; font-size: 10.2px;" transform="translate(145.10000610351562,55.5)" y="0" x="0" id="text-entity-Apartment-16842c76-5203-59c6-bfcc-2014b847d247-attr-2-key" class="er entityLabel"/><rect height="21" width="47.390625" y="66" x="0" class="er attributeBoxOdd"/><text style="dominant-baseline: middle; font-size: 10.2px;" transform="translate(5,76.5)" y="0" x="0" id="text-entity-Apartment-16842c76-5203-59c6-bfcc-2014b847d247-attr-3-type" class="er entityLabel">Int</text><rect height="21" width="92.70938110351562" y="66" x="47.390625" class="er attributeBoxOdd"/><text style="dominant-baseline: middle; font-size: 10.2px;" transform="translate(52.390625,76.5)" y="0" x="0" id="text-entity-Apartment-16842c76-5203-59c6-bfcc-2014b847d247-attr-3-name" class="er entityLabel">bedrooms</text><rect height="21" width="23.79498291015625" y="66" x="140.10000610351562" class="er attributeBoxOdd"/><text style="dominant-baseline: middle; font-size: 10.2px;" transform="translate(145.10000610351562,76.5)" y="0" x="0" id="text-entity-Apartment-16842c76-5203-59c6-bfcc-2014b847d247-attr-3-key" class="er entityLabel"/><rect height="21" width="47.390625" y="87" x="0" class="er attributeBoxEven"/><text style="dominant-baseline: middle; font-size: 10.2px;" transform="translate(5,97.5)" y="0" x="0" id="text-entity-Apartment-16842c76-5203-59c6-bfcc-2014b847d247-attr-4-type" class="er entityLabel">Int</text><rect height="21" width="92.70938110351562" y="87" x="47.390625" class="er attributeBoxEven"/><text style="dominant-baseline: middle; font-size: 10.2px;" transform="translate(52.390625,97.5)" y="0" x="0" id="text-entity-Apartment-16842c76-5203-59c6-bfcc-2014b847d247-attr-4-name" class="er entityLabel">bathrooms</text><rect height="21" width="23.79498291015625" y="87" x="140.10000610351562" class="er attributeBoxEven"/><text style="dominant-baseline: middle; font-size: 10.2px;" transform="translate(145.10000610351562,97.5)" y="0" x="0" id="text-entity-Apartment-16842c76-5203-59c6-bfcc-2014b847d247-attr-4-key" class="er entityLabel"/><rect height="21" width="47.390625" y="108" x="0" class="er attributeBoxOdd"/><text style="dominant-baseline: middle; font-size: 10.2px;" transform="translate(5,118.5)" y="0" x="0" id="text-entity-Apartment-16842c76-5203-59c6-bfcc-2014b847d247-attr-5-type" class="er entityLabel">Int</text><rect height="21" width="92.70938110351562" y="108" x="47.390625" class="er attributeBoxOdd"/><text style="dominant-baseline: middle; font-size: 10.2px;" transform="translate(52.390625,118.5)" y="0" x="0" id="text-entity-Apartment-16842c76-5203-59c6-bfcc-2014b847d247-attr-5-name" class="er entityLabel">parkingSpaces</text><rect height="21" width="23.79498291015625" y="108" x="140.10000610351562" class="er attributeBoxOdd"/><text style="dominant-baseline: middle; font-size: 10.2px;" transform="translate(145.10000610351562,118.5)" y="0" x="0" id="text-entity-Apartment-16842c76-5203-59c6-bfcc-2014b847d247-attr-5-key" class="er entityLabel"/><rect height="21" width="47.390625" y="129" x="0" class="er attributeBoxEven"/><text style="dominant-baseline: middle; font-size: 10.2px;" transform="translate(5,139.5)" y="0" x="0" id="text-entity-Apartment-16842c76-5203-59c6-bfcc-2014b847d247-attr-6-type" class="er entityLabel">Boolean</text><rect height="21" width="92.70938110351562" y="129" x="47.390625" class="er attributeBoxEven"/><text style="dominant-baseline: middle; font-size: 10.2px;" transform="translate(52.390625,139.5)" y="0" x="0" id="text-entity-Apartment-16842c76-5203-59c6-bfcc-2014b847d247-attr-6-name" class="er entityLabel">furnished</text><rect height="21" width="23.79498291015625" y="129" x="140.10000610351562" class="er attributeBoxEven"/><text style="dominant-baseline: middle; font-size: 10.2px;" transform="translate(145.10000610351562,139.5)" y="0" x="0" id="text-entity-Apartment-16842c76-5203-59c6-bfcc-2014b847d247-attr-6-key" class="er entityLabel"/><rect height="21" width="47.390625" y="150" x="0" class="er attributeBoxOdd"/><text style="dominant-baseline: middle; font-size: 10.2px;" transform="translate(5,160.5)" y="0" x="0" id="text-entity-Apartment-16842c76-5203-59c6-bfcc-2014b847d247-attr-7-type" class="er entityLabel">Boolean</text><rect height="21" width="92.70938110351562" y="150" x="47.390625" class="er attributeBoxOdd"/><text style="dominant-baseline: middle; font-size: 10.2px;" transform="translate(52.390625,160.5)" y="0" x="0" id="text-entity-Apartment-16842c76-5203-59c6-bfcc-2014b847d247-attr-7-name" class="er entityLabel">petsAllowed</text><rect height="21" width="23.79498291015625" y="150" x="140.10000610351562" class="er attributeBoxOdd"/><text style="dominant-baseline: middle; font-size: 10.2px;" transform="translate(145.10000610351562,160.5)" y="0" x="0" id="text-entity-Apartment-16842c76-5203-59c6-bfcc-2014b847d247-attr-7-key" class="er entityLabel"/><rect height="21" width="47.390625" y="171" x="0" class="er attributeBoxEven"/><text style="dominant-baseline: middle; font-size: 10.2px;" transform="translate(5,181.5)" y="0" x="0" id="text-entity-Apartment-16842c76-5203-59c6-bfcc-2014b847d247-attr-8-type" class="er entityLabel">Int</text><rect height="21" width="92.70938110351562" y="171" x="47.390625" class="er attributeBoxEven"/><text style="dominant-baseline: middle; font-size: 10.2px;" transform="translate(52.390625,181.5)" y="0" x="0" id="text-entity-Apartment-16842c76-5203-59c6-bfcc-2014b847d247-attr-8-name" class="er entityLabel">size</text><rect height="21" width="23.79498291015625" y="171" x="140.10000610351562" class="er attributeBoxEven"/><text style="dominant-baseline: middle; font-size: 10.2px;" transform="translate(145.10000610351562,181.5)" y="0" x="0" id="text-entity-Apartment-16842c76-5203-59c6-bfcc-2014b847d247-attr-8-key" class="er entityLabel"/><rect height="21" width="47.390625" y="192" x="0" class="er attributeBoxOdd"/><text style="dominant-baseline: middle; font-size: 10.2px;" transform="translate(5,202.5)" y="0" x="0" id="text-entity-Apartment-16842c76-5203-59c6-bfcc-2014b847d247-attr-9-type" class="er entityLabel">Int</text><rect height="21" width="92.70938110351562" y="192" x="47.390625" class="er attributeBoxOdd"/><text style="dominant-baseline: middle; font-size: 10.2px;" transform="translate(52.390625,202.5)" y="0" x="0" id="text-entity-Apartment-16842c76-5203-59c6-bfcc-2014b847d247-attr-9-name" class="er entityLabel">rentValue</text><rect height="21" width="23.79498291015625" y="192" x="140.10000610351562" class="er attributeBoxOdd"/><text style="dominant-baseline: middle; font-size: 10.2px;" transform="translate(145.10000610351562,202.5)" y="0" x="0" id="text-entity-Apartment-16842c76-5203-59c6-bfcc-2014b847d247-attr-9-key" class="er entityLabel"/></g><g transform="translate(352.3428726196289,593.5 )" id="entity-Owner-b015d58d-3b3f-51b4-9ed0-f31091e8dcf8"><rect height="45" width="100" y="0" x="0" class="er entityBox"/><text style="dominant-baseline: middle; text-anchor: middle; font-size: 12px;" transform="translate(50,12)" y="0" x="0" id="text-entity-Owner-b015d58d-3b3f-51b4-9ed0-f31091e8dcf8" class="er entityLabel">Owner</text><rect height="21" width="43.94526163736979" y="24" x="0" class="er attributeBoxOdd"/><text style="dominant-baseline: middle; font-size: 10.2px;" transform="translate(5,34.5)" y="0" x="0" id="text-entity-Owner-b015d58d-3b3f-51b4-9ed0-f31091e8dcf8-attr-1-type" class="er entityLabel">String</text><rect height="21" width="25.261545817057293" y="24" x="43.94526163736979" class="er attributeBoxOdd"/><text style="dominant-baseline: middle; font-size: 10.2px;" transform="translate(48.94526163736979,34.5)" y="0" x="0" id="text-entity-Owner-b015d58d-3b3f-51b4-9ed0-f31091e8dcf8-attr-1-name" class="er entityLabel">id</text><rect height="21" width="30.793192545572918" y="24" x="69.20680745442708" class="er attributeBoxOdd"/><text style="dominant-baseline: middle; font-size: 10.2px;" transform="translate(74.20680745442708,34.5)" y="0" x="0" id="text-entity-Owner-b015d58d-3b3f-51b4-9ed0-f31091e8dcf8-attr-1-key" class="er entityLabel">PK</text></g><g transform="translate(376.9182357788086,20 )" id="entity-Location-4c7ff6f7-30f4-5019-8472-285cd3f624cb"><rect height="108" width="132.79676818847656" y="0" x="0" class="er entityBox"/><text style="dominant-baseline: middle; text-anchor: middle; font-size: 12px;" transform="translate(66.39838409423828,12)" y="0" x="0" id="text-entity-Location-4c7ff6f7-30f4-5019-8472-285cd3f624cb" class="er entityLabel">Location</text><rect height="21" width="54.113128662109375" y="24" x="0" class="er attributeBoxOdd"/><text style="dominant-baseline: middle; font-size: 10.2px;" transform="translate(5,34.5)" y="0" x="0" id="text-entity-Location-4c7ff6f7-30f4-5019-8472-285cd3f624cb-attr-1-type" class="er entityLabel">String</text><rect height="21" width="54.88865661621094" y="24" x="54.113128662109375" class="er attributeBoxOdd"/><text style="dominant-baseline: middle; font-size: 10.2px;" transform="translate(59.113128662109375,34.5)" y="0" x="0" id="text-entity-Location-4c7ff6f7-30f4-5019-8472-285cd3f624cb-attr-1-name" class="er entityLabel">id</text><rect height="21" width="23.79498291015625" y="24" x="109.00178527832031" class="er attributeBoxOdd"/><text style="dominant-baseline: middle; font-size: 10.2px;" transform="translate(114.00178527832031,34.5)" y="0" x="0" id="text-entity-Location-4c7ff6f7-30f4-5019-8472-285cd3f624cb-attr-1-key" class="er entityLabel">PK</text><rect height="21" width="54.113128662109375" y="45" x="0" class="er attributeBoxEven"/><text style="dominant-baseline: middle; font-size: 10.2px;" transform="translate(5,55.5)" y="0" x="0" id="text-entity-Location-4c7ff6f7-30f4-5019-8472-285cd3f624cb-attr-2-type" class="er entityLabel">DateTime</text><rect height="21" width="54.88865661621094" y="45" x="54.113128662109375" class="er attributeBoxEven"/><text style="dominant-baseline: middle; font-size: 10.2px;" transform="translate(59.113128662109375,55.5)" y="0" x="0" id="text-entity-Location-4c7ff6f7-30f4-5019-8472-285cd3f624cb-attr-2-name" class="er entityLabel">startDate</text><rect height="21" width="23.79498291015625" y="45" x="109.00178527832031" class="er attributeBoxEven"/><text style="dominant-baseline: middle; font-size: 10.2px;" transform="translate(114.00178527832031,55.5)" y="0" x="0" id="text-entity-Location-4c7ff6f7-30f4-5019-8472-285cd3f624cb-attr-2-key" class="er entityLabel"/><rect height="21" width="54.113128662109375" y="66" x="0" class="er attributeBoxOdd"/><text style="dominant-baseline: middle; font-size: 10.2px;" transform="translate(5,76.5)" y="0" x="0" id="text-entity-Location-4c7ff6f7-30f4-5019-8472-285cd3f624cb-attr-3-type" class="er entityLabel">DateTime</text><rect height="21" width="54.88865661621094" y="66" x="54.113128662109375" class="er attributeBoxOdd"/><text style="dominant-baseline: middle; font-size: 10.2px;" transform="translate(59.113128662109375,76.5)" y="0" x="0" id="text-entity-Location-4c7ff6f7-30f4-5019-8472-285cd3f624cb-attr-3-name" class="er entityLabel">endDate</text><rect height="21" width="23.79498291015625" y="66" x="109.00178527832031" class="er attributeBoxOdd"/><text style="dominant-baseline: middle; font-size: 10.2px;" transform="translate(114.00178527832031,76.5)" y="0" x="0" id="text-entity-Location-4c7ff6f7-30f4-5019-8472-285cd3f624cb-attr-3-key" class="er entityLabel"/><rect height="21" width="54.113128662109375" y="87" x="0" class="er attributeBoxEven"/><text style="dominant-baseline: middle; font-size: 10.2px;" transform="translate(5,97.5)" y="0" x="0" id="text-entity-Location-4c7ff6f7-30f4-5019-8472-285cd3f624cb-attr-4-type" class="er entityLabel">Int</text><rect height="21" width="54.88865661621094" y="87" x="54.113128662109375" class="er attributeBoxEven"/><text style="dominant-baseline: middle; font-size: 10.2px;" transform="translate(59.113128662109375,97.5)" y="0" x="0" id="text-entity-Location-4c7ff6f7-30f4-5019-8472-285cd3f624cb-attr-4-name" class="er entityLabel">totalValue</text><rect height="21" width="23.79498291015625" y="87" x="109.00178527832031" class="er attributeBoxEven"/><text style="dominant-baseline: middle; font-size: 10.2px;" transform="translate(114.00178527832031,97.5)" y="0" x="0" id="text-entity-Location-4c7ff6f7-30f4-5019-8472-285cd3f624cb-attr-4-key" class="er entityLabel"/></g><rect height="14" width="53.6875" y="1026" x="466.4728698730469" class="er relationshipLabelBox"/><text style="text-anchor: middle; dominant-baseline: middle; font-size: 12px;" y="1033" x="493.3166198730469" id="rel1" class="er relationshipLabel">enum:role</text><rect height="14" width="41.375" y="464.30078125" x="51.206565856933594" class="er relationshipLabelBox"/><text style="text-anchor: middle; dominant-baseline: middle; font-size: 12px;" y="471.30078125" x="71.8940658569336" id="rel2" class="er relationshipLabel">building</text><rect height="14" width="41.375" y="485.507080078125" x="212.48739624023438" class="er relationshipLabelBox"/><text style="text-anchor: middle; dominant-baseline: middle; font-size: 12px;" y="492.507080078125" x="233.17489624023438" id="rel3" class="er relationshipLabel">building</text><rect height="14" width="35.34765625" y="509.4208984375" x="383.34051513671875" class="er relationshipLabelBox"/><text style="text-anchor: middle; dominant-baseline: middle; font-size: 12px;" y="516.4208984375" x="401.01434326171875" id="rel4" class="er relationshipLabel">Owner</text><rect height="14" width="23.34765625" y="710.7503051757812" x="393.5234680175781" class="er relationshipLabelBox"/><text style="text-anchor: middle; dominant-baseline: middle; font-size: 12px;" y="717.7503051757812" x="405.1972961425781" id="rel5" class="er relationshipLabel">user</text><rect height="14" width="23.34765625" y="445.1098937988281" x="556.642822265625" class="er relationshipLabelBox"/><text style="text-anchor: middle; dominant-baseline: middle; font-size: 12px;" y="452.1098937988281" x="568.316650390625" id="rel6" class="er relationshipLabel">user</text><rect height="14" width="54.6953125" y="165.96717834472656" x="334.6972351074219" class="er relationshipLabelBox"/><text style="text-anchor: middle; dominant-baseline: middle; font-size: 12px;" y="172.96717834472656" x="362.0448913574219" id="rel7" class="er relationshipLabel">apartment</text></svg>