<svg aria-roledescription="er" role="graphics-document document" viewBox="0 0 477.0157165527344 711" style="max-width: 477.016px; background-color: white;" xmlns:xlink="http://www.w3.org/1999/xlink" xmlns="http://www.w3.org/2000/svg" width="100%" id="mermaid-0"><style>#mermaid-0{font-family:"trebuchet ms",verdana,arial,sans-serif;font-size:16px;fill:#000000;}#mermaid-0 .error-icon{fill:#552222;}#mermaid-0 .error-text{fill:#552222;stroke:#552222;}#mermaid-0 .edge-thickness-normal{stroke-width:2px;}#mermaid-0 .edge-thickness-thick{stroke-width:3.5px;}#mermaid-0 .edge-pattern-solid{stroke-dasharray:0;}#mermaid-0 .edge-pattern-dashed{stroke-dasharray:3;}#mermaid-0 .edge-pattern-dotted{stroke-dasharray:2;}#mermaid-0 .marker{fill:#000000;stroke:#000000;}#mermaid-0 .marker.cross{stroke:#000000;}#mermaid-0 svg{font-family:"trebuchet ms",verdana,arial,sans-serif;font-size:16px;}#mermaid-0 .entityBox{fill:#cde498;stroke:#13540c;}#mermaid-0 .attributeBoxOdd{fill:#ffffff;stroke:#13540c;}#mermaid-0 .attributeBoxEven{fill:#f2f2f2;stroke:#13540c;}#mermaid-0 .relationshipLabelBox{fill:hsl(78.1578947368, 58.4615384615%, 84.5098039216%);opacity:0.7;background-color:hsl(78.1578947368, 58.4615384615%, 84.5098039216%);}#mermaid-0 .relationshipLabelBox rect{opacity:0.5;}#mermaid-0 .relationshipLine{stroke:#000000;}#mermaid-0 .entityTitleText{text-anchor:middle;font-size:18px;fill:#000000;}#mermaid-0 :root{--mermaid-font-family:"trebuchet ms",verdana,arial,sans-serif;}</style><g/><defs><marker orient="auto" markerHeight="18" markerWidth="18" refY="9" refX="0" id="ONLY_ONE_START"><path d="M9,0 L9,18 M15,0 L15,18" fill="none" stroke="gray"/></marker></defs><defs><marker orient="auto" markerHeight="18" markerWidth="18" refY="9" refX="18" id="ONLY_ONE_END"><path d="M3,0 L3,18 M9,0 L9,18" fill="none" stroke="gray"/></marker></defs><defs><marker orient="auto" markerHeight="18" markerWidth="30" refY="9" refX="0" id="ZERO_OR_ONE_START"><circle r="6" cy="9" cx="21" fill="white" stroke="gray"/><path d="M9,0 L9,18" fill="none" stroke="gray"/></marker></defs><defs><marker orient="auto" markerHeight="18" markerWidth="30" refY="9" refX="30" id="ZERO_OR_ONE_END"><circle r="6" cy="9" cx="9" fill="white" stroke="gray"/><path d="M21,0 L21,18" fill="none" stroke="gray"/></marker></defs><defs><marker orient="auto" markerHeight="36" markerWidth="45" refY="18" refX="18" id="ONE_OR_MORE_START"><path d="M0,18 Q 18,0 36,18 Q 18,36 0,18 M42,9 L42,27" fill="none" stroke="gray"/></marker></defs><defs><marker orient="auto" markerHeight="36" markerWidth="45" refY="18" refX="27" id="ONE_OR_MORE_END"><path d="M3,9 L3,27 M9,18 Q27,0 45,18 Q27,36 9,18" fill="none" stroke="gray"/></marker></defs><defs><marker orient="auto" markerHeight="36" markerWidth="57" refY="18" refX="18" id="ZERO_OR_MORE_START"><circle r="6" cy="18" cx="48" fill="white" stroke="gray"/><path d="M0,18 Q18,0 36,18 Q18,36 0,18" fill="none" stroke="gray"/></marker></defs><defs><marker orient="auto" markerHeight="36" markerWidth="57" refY="18" refX="39" id="ZERO_OR_MORE_END"><circle r="6" cy="18" cx="9" fill="white" stroke="gray"/><path d="M21,18 Q39,0 57,18 Q39,36 21,18" fill="none" stroke="gray"/></marker></defs><path style="stroke: gray; fill: none;" marker-start="url(#ZERO_OR_ONE_START)" marker-end="url(#ONLY_ONE_END)" d="M109.99076843261719,212L109.99076843261719,220.33333333333334C109.99076843261719,228.66666666666666,109.99076843261719,245.33333333333334,109.99076843261719,269C109.99076843261719,292.6666666666667,109.99076843261719,323.3333333333333,109.99076843261719,338.6666666666667L109.99076843261719,354" class="er relationshipLine"/><path style="stroke: gray; fill: none;" marker-start="url(#ZERO_OR_MORE_START)" marker-end="url(#ONLY_ONE_END)" d="M374.2774658203125,462L374.2774658203125,470.3333333333333C374.2774658203125,478.6666666666667,374.2774658203125,495.3333333333333,374.2774658203125,512C374.2774658203125,528.6666666666666,374.2774658203125,545.3333333333334,374.2774658203125,553.6666666666666L374.2774658203125,562" class="er relationshipLine"/><path style="stroke: gray; fill: none;" marker-start="url(#ZERO_OR_MORE_START)" marker-end="url(#ONLY_ONE_END)" d="M374.2774658203125,212L374.2774658203125,220.33333333333334C374.2774658203125,228.66666666666666,374.2774658203125,245.33333333333334,374.2774658203125,262C374.2774658203125,278.6666666666667,374.2774658203125,295.3333333333333,374.2774658203125,303.6666666666667L374.2774658203125,312" class="er relationshipLine"/><g transform="translate(59.99076843261719,354 )" id="entity-Role-8dbdbbc4-0419-5464-aae6-f142fb2ece67"><rect height="66" width="100" y="0" x="0" class="er entityBox"/><text style="dominant-baseline: middle; text-anchor: middle; font-size: 12px;" transform="translate(50,12)" y="0" x="0" id="text-entity-Role-8dbdbbc4-0419-5464-aae6-f142fb2ece67" class="er entityLabel">Role</text><rect height="21" width="50" y="24" x="0" class="er attributeBoxOdd"/><text style="dominant-baseline: middle; font-size: 10.2px;" transform="translate(5,34.5)" y="0" x="0" id="text-entity-Role-8dbdbbc4-0419-5464-aae6-f142fb2ece67-attr-1-type" class="er entityLabel">USER</text><rect height="21" width="50" y="24" x="50" class="er attributeBoxOdd"/><text style="dominant-baseline: middle; font-size: 10.2px;" transform="translate(55,34.5)" y="0" x="0" id="text-entity-Role-8dbdbbc4-0419-5464-aae6-f142fb2ece67-attr-1-name" class="er entityLabel">USER</text><rect height="21" width="50" y="45" x="0" class="er attributeBoxEven"/><text style="dominant-baseline: middle; font-size: 10.2px;" transform="translate(5,55.5)" y="0" x="0" id="text-entity-Role-8dbdbbc4-0419-5464-aae6-f142fb2ece67-attr-2-type" class="er entityLabel">ADMIN</text><rect height="21" width="50" y="45" x="50" class="er attributeBoxEven"/><text style="dominant-baseline: middle; font-size: 10.2px;" transform="translate(55,55.5)" y="0" x="0" id="text-entity-Role-8dbdbbc4-0419-5464-aae6-f142fb2ece67-attr-2-name" class="er entityLabel">ADMIN</text></g><g transform="translate(20,20 )" id="entity-users-33ae1e26-be31-5c1d-bf65-e859e9d0308e"><rect height="192" width="179.98153686523438" y="0" x="0" class="er entityBox"/><text style="dominant-baseline: middle; text-anchor: middle; font-size: 12px;" transform="translate(89.99076843261719,12)" y="0" x="0" id="text-entity-users-33ae1e26-be31-5c1d-bf65-e859e9d0308e" class="er entityLabel">users</text><rect height="21" width="54.113128662109375" y="24" x="0" class="er attributeBoxOdd"/><text style="dominant-baseline: middle; font-size: 10.2px;" transform="translate(5,34.5)" y="0" x="0" id="text-entity-users-33ae1e26-be31-5c1d-bf65-e859e9d0308e-attr-1-type" class="er entityLabel">String</text><rect height="21" width="56.620208740234375" y="24" x="54.113128662109375" class="er attributeBoxOdd"/><text style="dominant-baseline: middle; font-size: 10.2px;" transform="translate(59.113128662109375,34.5)" y="0" x="0" id="text-entity-users-33ae1e26-be31-5c1d-bf65-e859e9d0308e-attr-1-name" class="er entityLabel">id</text><rect height="21" width="23.79498291015625" y="24" x="110.73333740234375" class="er attributeBoxOdd"/><text style="dominant-baseline: middle; font-size: 10.2px;" transform="translate(115.73333740234375,34.5)" y="0" x="0" id="text-entity-users-33ae1e26-be31-5c1d-bf65-e859e9d0308e-attr-1-key" class="er entityLabel">PK</text><rect height="21" width="45.453216552734375" y="24" x="134.5283203125" class="er attributeBoxOdd"/><text style="dominant-baseline: middle; font-size: 10.2px;" transform="translate(139.5283203125,34.5)" y="0" x="0" id="text-entity-users-33ae1e26-be31-5c1d-bf65-e859e9d0308e-attr-1-comment" class="er entityLabel"/><rect height="21" width="54.113128662109375" y="45" x="0" class="er attributeBoxEven"/><text style="dominant-baseline: middle; font-size: 10.2px;" transform="translate(5,55.5)" y="0" x="0" id="text-entity-users-33ae1e26-be31-5c1d-bf65-e859e9d0308e-attr-2-type" class="er entityLabel">String</text><rect height="21" width="56.620208740234375" y="45" x="54.113128662109375" class="er attributeBoxEven"/><text style="dominant-baseline: middle; font-size: 10.2px;" transform="translate(59.113128662109375,55.5)" y="0" x="0" id="text-entity-users-33ae1e26-be31-5c1d-bf65-e859e9d0308e-attr-2-name" class="er entityLabel">name</text><rect height="21" width="23.79498291015625" y="45" x="110.73333740234375" class="er attributeBoxEven"/><text style="dominant-baseline: middle; font-size: 10.2px;" transform="translate(115.73333740234375,55.5)" y="0" x="0" id="text-entity-users-33ae1e26-be31-5c1d-bf65-e859e9d0308e-attr-2-key" class="er entityLabel"/><rect height="21" width="45.453216552734375" y="45" x="134.5283203125" class="er attributeBoxEven"/><text style="dominant-baseline: middle; font-size: 10.2px;" transform="translate(139.5283203125,55.5)" y="0" x="0" id="text-entity-users-33ae1e26-be31-5c1d-bf65-e859e9d0308e-attr-2-comment" class="er entityLabel"/><rect height="21" width="54.113128662109375" y="66" x="0" class="er attributeBoxOdd"/><text style="dominant-baseline: middle; font-size: 10.2px;" transform="translate(5,76.5)" y="0" x="0" id="text-entity-users-33ae1e26-be31-5c1d-bf65-e859e9d0308e-attr-3-type" class="er entityLabel">String</text><rect height="21" width="56.620208740234375" y="66" x="54.113128662109375" class="er attributeBoxOdd"/><text style="dominant-baseline: middle; font-size: 10.2px;" transform="translate(59.113128662109375,76.5)" y="0" x="0" id="text-entity-users-33ae1e26-be31-5c1d-bf65-e859e9d0308e-attr-3-name" class="er entityLabel">email</text><rect height="21" width="23.79498291015625" y="66" x="110.73333740234375" class="er attributeBoxOdd"/><text style="dominant-baseline: middle; font-size: 10.2px;" transform="translate(115.73333740234375,76.5)" y="0" x="0" id="text-entity-users-33ae1e26-be31-5c1d-bf65-e859e9d0308e-attr-3-key" class="er entityLabel"/><rect height="21" width="45.453216552734375" y="66" x="134.5283203125" class="er attributeBoxOdd"/><text style="dominant-baseline: middle; font-size: 10.2px;" transform="translate(139.5283203125,76.5)" y="0" x="0" id="text-entity-users-33ae1e26-be31-5c1d-bf65-e859e9d0308e-attr-3-comment" class="er entityLabel"/><rect height="21" width="54.113128662109375" y="87" x="0" class="er attributeBoxEven"/><text style="dominant-baseline: middle; font-size: 10.2px;" transform="translate(5,97.5)" y="0" x="0" id="text-entity-users-33ae1e26-be31-5c1d-bf65-e859e9d0308e-attr-4-type" class="er entityLabel">String</text><rect height="21" width="56.620208740234375" y="87" x="54.113128662109375" class="er attributeBoxEven"/><text style="dominant-baseline: middle; font-size: 10.2px;" transform="translate(59.113128662109375,97.5)" y="0" x="0" id="text-entity-users-33ae1e26-be31-5c1d-bf65-e859e9d0308e-attr-4-name" class="er entityLabel">password</text><rect height="21" width="23.79498291015625" y="87" x="110.73333740234375" class="er attributeBoxEven"/><text style="dominant-baseline: middle; font-size: 10.2px;" transform="translate(115.73333740234375,97.5)" y="0" x="0" id="text-entity-users-33ae1e26-be31-5c1d-bf65-e859e9d0308e-attr-4-key" class="er entityLabel"/><rect height="21" width="45.453216552734375" y="87" x="134.5283203125" class="er attributeBoxEven"/><text style="dominant-baseline: middle; font-size: 10.2px;" transform="translate(139.5283203125,97.5)" y="0" x="0" id="text-entity-users-33ae1e26-be31-5c1d-bf65-e859e9d0308e-attr-4-comment" class="er entityLabel"/><rect height="21" width="54.113128662109375" y="108" x="0" class="er attributeBoxOdd"/><text style="dominant-baseline: middle; font-size: 10.2px;" transform="translate(5,118.5)" y="0" x="0" id="text-entity-users-33ae1e26-be31-5c1d-bf65-e859e9d0308e-attr-5-type" class="er entityLabel">DateTime</text><rect height="21" width="56.620208740234375" y="108" x="54.113128662109375" class="er attributeBoxOdd"/><text style="dominant-baseline: middle; font-size: 10.2px;" transform="translate(59.113128662109375,118.5)" y="0" x="0" id="text-entity-users-33ae1e26-be31-5c1d-bf65-e859e9d0308e-attr-5-name" class="er entityLabel">createdAt</text><rect height="21" width="23.79498291015625" y="108" x="110.73333740234375" class="er attributeBoxOdd"/><text style="dominant-baseline: middle; font-size: 10.2px;" transform="translate(115.73333740234375,118.5)" y="0" x="0" id="text-entity-users-33ae1e26-be31-5c1d-bf65-e859e9d0308e-attr-5-key" class="er entityLabel"/><rect height="21" width="45.453216552734375" y="108" x="134.5283203125" class="er attributeBoxOdd"/><text style="dominant-baseline: middle; font-size: 10.2px;" transform="translate(139.5283203125,118.5)" y="0" x="0" id="text-entity-users-33ae1e26-be31-5c1d-bf65-e859e9d0308e-attr-5-comment" class="er entityLabel"/><rect height="21" width="54.113128662109375" y="129" x="0" class="er attributeBoxEven"/><text style="dominant-baseline: middle; font-size: 10.2px;" transform="translate(5,139.5)" y="0" x="0" id="text-entity-users-33ae1e26-be31-5c1d-bf65-e859e9d0308e-attr-6-type" class="er entityLabel">DateTime</text><rect height="21" width="56.620208740234375" y="129" x="54.113128662109375" class="er attributeBoxEven"/><text style="dominant-baseline: middle; font-size: 10.2px;" transform="translate(59.113128662109375,139.5)" y="0" x="0" id="text-entity-users-33ae1e26-be31-5c1d-bf65-e859e9d0308e-attr-6-name" class="er entityLabel">updatedAt</text><rect height="21" width="23.79498291015625" y="129" x="110.73333740234375" class="er attributeBoxEven"/><text style="dominant-baseline: middle; font-size: 10.2px;" transform="translate(115.73333740234375,139.5)" y="0" x="0" id="text-entity-users-33ae1e26-be31-5c1d-bf65-e859e9d0308e-attr-6-key" class="er entityLabel"/><rect height="21" width="45.453216552734375" y="129" x="134.5283203125" class="er attributeBoxEven"/><text style="dominant-baseline: middle; font-size: 10.2px;" transform="translate(139.5283203125,139.5)" y="0" x="0" id="text-entity-users-33ae1e26-be31-5c1d-bf65-e859e9d0308e-attr-6-comment" class="er entityLabel"/><rect height="21" width="54.113128662109375" y="150" x="0" class="er attributeBoxOdd"/><text style="dominant-baseline: middle; font-size: 10.2px;" transform="translate(5,160.5)" y="0" x="0" id="text-entity-users-33ae1e26-be31-5c1d-bf65-e859e9d0308e-attr-7-type" class="er entityLabel">String</text><rect height="21" width="56.620208740234375" y="150" x="54.113128662109375" class="er attributeBoxOdd"/><text style="dominant-baseline: middle; font-size: 10.2px;" transform="translate(59.113128662109375,160.5)" y="0" x="0" id="text-entity-users-33ae1e26-be31-5c1d-bf65-e859e9d0308e-attr-7-name" class="er entityLabel">imageId</text><rect height="21" width="23.79498291015625" y="150" x="110.73333740234375" class="er attributeBoxOdd"/><text style="dominant-baseline: middle; font-size: 10.2px;" transform="translate(115.73333740234375,160.5)" y="0" x="0" id="text-entity-users-33ae1e26-be31-5c1d-bf65-e859e9d0308e-attr-7-key" class="er entityLabel"/><rect height="21" width="45.453216552734375" y="150" x="134.5283203125" class="er attributeBoxOdd"/><text style="dominant-baseline: middle; font-size: 10.2px;" transform="translate(139.5283203125,160.5)" y="0" x="0" id="text-entity-users-33ae1e26-be31-5c1d-bf65-e859e9d0308e-attr-7-comment" class="er entityLabel">nullable</text><rect height="21" width="54.113128662109375" y="171" x="0" class="er attributeBoxEven"/><text style="dominant-baseline: middle; font-size: 10.2px;" transform="translate(5,181.5)" y="0" x="0" id="text-entity-users-33ae1e26-be31-5c1d-bf65-e859e9d0308e-attr-8-type" class="er entityLabel">Role</text><rect height="21" width="56.620208740234375" y="171" x="54.113128662109375" class="er attributeBoxEven"/><text style="dominant-baseline: middle; font-size: 10.2px;" transform="translate(59.113128662109375,181.5)" y="0" x="0" id="text-entity-users-33ae1e26-be31-5c1d-bf65-e859e9d0308e-attr-8-name" class="er entityLabel">role</text><rect height="21" width="23.79498291015625" y="171" x="110.73333740234375" class="er attributeBoxEven"/><text style="dominant-baseline: middle; font-size: 10.2px;" transform="translate(115.73333740234375,181.5)" y="0" x="0" id="text-entity-users-33ae1e26-be31-5c1d-bf65-e859e9d0308e-attr-8-key" class="er entityLabel"/><rect height="21" width="45.453216552734375" y="171" x="134.5283203125" class="er attributeBoxEven"/><text style="dominant-baseline: middle; font-size: 10.2px;" transform="translate(139.5283203125,181.5)" y="0" x="0" id="text-entity-users-33ae1e26-be31-5c1d-bf65-e859e9d0308e-attr-8-comment" class="er entityLabel"/></g><g transform="translate(324.2774658203125,562 )" id="entity-address-30c0d688-dbdc-5f86-9bc6-9a2d2ce26984"><rect height="129" width="100" y="0" x="0" class="er entityBox"/><text style="dominant-baseline: middle; text-anchor: middle; font-size: 12px;" transform="translate(50,12)" y="0" x="0" id="text-entity-address-30c0d688-dbdc-5f86-9bc6-9a2d2ce26984" class="er entityLabel">address</text><rect height="21" width="38.15027872721354" y="24" x="0" class="er attributeBoxOdd"/><text style="dominant-baseline: middle; font-size: 10.2px;" transform="translate(5,34.5)" y="0" x="0" id="text-entity-address-30c0d688-dbdc-5f86-9bc6-9a2d2ce26984-attr-1-type" class="er entityLabel">String</text><rect height="21" width="36.85151163736979" y="24" x="38.15027872721354" class="er attributeBoxOdd"/><text style="dominant-baseline: middle; font-size: 10.2px;" transform="translate(43.15027872721354,34.5)" y="0" x="0" id="text-entity-address-30c0d688-dbdc-5f86-9bc6-9a2d2ce26984-attr-1-name" class="er entityLabel">id</text><rect height="21" width="24.998209635416668" y="24" x="75.00179036458333" class="er attributeBoxOdd"/><text style="dominant-baseline: middle; font-size: 10.2px;" transform="translate(80.00179036458333,34.5)" y="0" x="0" id="text-entity-address-30c0d688-dbdc-5f86-9bc6-9a2d2ce26984-attr-1-key" class="er entityLabel">PK</text><rect height="21" width="38.15027872721354" y="45" x="0" class="er attributeBoxEven"/><text style="dominant-baseline: middle; font-size: 10.2px;" transform="translate(5,55.5)" y="0" x="0" id="text-entity-address-30c0d688-dbdc-5f86-9bc6-9a2d2ce26984-attr-2-type" class="er entityLabel">String</text><rect height="21" width="36.85151163736979" y="45" x="38.15027872721354" class="er attributeBoxEven"/><text style="dominant-baseline: middle; font-size: 10.2px;" transform="translate(43.15027872721354,55.5)" y="0" x="0" id="text-entity-address-30c0d688-dbdc-5f86-9bc6-9a2d2ce26984-attr-2-name" class="er entityLabel">street</text><rect height="21" width="24.998209635416668" y="45" x="75.00179036458333" class="er attributeBoxEven"/><text style="dominant-baseline: middle; font-size: 10.2px;" transform="translate(80.00179036458333,55.5)" y="0" x="0" id="text-entity-address-30c0d688-dbdc-5f86-9bc6-9a2d2ce26984-attr-2-key" class="er entityLabel"/><rect height="21" width="38.15027872721354" y="66" x="0" class="er attributeBoxOdd"/><text style="dominant-baseline: middle; font-size: 10.2px;" transform="translate(5,76.5)" y="0" x="0" id="text-entity-address-30c0d688-dbdc-5f86-9bc6-9a2d2ce26984-attr-3-type" class="er entityLabel">String</text><rect height="21" width="36.85151163736979" y="66" x="38.15027872721354" class="er attributeBoxOdd"/><text style="dominant-baseline: middle; font-size: 10.2px;" transform="translate(43.15027872721354,76.5)" y="0" x="0" id="text-entity-address-30c0d688-dbdc-5f86-9bc6-9a2d2ce26984-attr-3-name" class="er entityLabel">city</text><rect height="21" width="24.998209635416668" y="66" x="75.00179036458333" class="er attributeBoxOdd"/><text style="dominant-baseline: middle; font-size: 10.2px;" transform="translate(80.00179036458333,76.5)" y="0" x="0" id="text-entity-address-30c0d688-dbdc-5f86-9bc6-9a2d2ce26984-attr-3-key" class="er entityLabel"/><rect height="21" width="38.15027872721354" y="87" x="0" class="er attributeBoxEven"/><text style="dominant-baseline: middle; font-size: 10.2px;" transform="translate(5,97.5)" y="0" x="0" id="text-entity-address-30c0d688-dbdc-5f86-9bc6-9a2d2ce26984-attr-4-type" class="er entityLabel">String</text><rect height="21" width="36.85151163736979" y="87" x="38.15027872721354" class="er attributeBoxEven"/><text style="dominant-baseline: middle; font-size: 10.2px;" transform="translate(43.15027872721354,97.5)" y="0" x="0" id="text-entity-address-30c0d688-dbdc-5f86-9bc6-9a2d2ce26984-attr-4-name" class="er entityLabel">state</text><rect height="21" width="24.998209635416668" y="87" x="75.00179036458333" class="er attributeBoxEven"/><text style="dominant-baseline: middle; font-size: 10.2px;" transform="translate(80.00179036458333,97.5)" y="0" x="0" id="text-entity-address-30c0d688-dbdc-5f86-9bc6-9a2d2ce26984-attr-4-key" class="er entityLabel"/><rect height="21" width="38.15027872721354" y="108" x="0" class="er attributeBoxOdd"/><text style="dominant-baseline: middle; font-size: 10.2px;" transform="translate(5,118.5)" y="0" x="0" id="text-entity-address-30c0d688-dbdc-5f86-9bc6-9a2d2ce26984-attr-5-type" class="er entityLabel">String</text><rect height="21" width="36.85151163736979" y="108" x="38.15027872721354" class="er attributeBoxOdd"/><text style="dominant-baseline: middle; font-size: 10.2px;" transform="translate(43.15027872721354,118.5)" y="0" x="0" id="text-entity-address-30c0d688-dbdc-5f86-9bc6-9a2d2ce26984-attr-5-name" class="er entityLabel">zip</text><rect height="21" width="24.998209635416668" y="108" x="75.00179036458333" class="er attributeBoxOdd"/><text style="dominant-baseline: middle; font-size: 10.2px;" transform="translate(80.00179036458333,118.5)" y="0" x="0" id="text-entity-address-30c0d688-dbdc-5f86-9bc6-9a2d2ce26984-attr-5-key" class="er entityLabel"/></g><g transform="translate(291.5392150878906,312 )" id="entity-buildings-7e60d4df-d8a3-56bf-ba17-04c5f4611f79"><rect height="150" width="165.47650146484375" y="0" x="0" class="er entityBox"/><text style="dominant-baseline: middle; text-anchor: middle; font-size: 12px;" transform="translate(82.73825073242188,12)" y="0" x="0" id="text-entity-buildings-7e60d4df-d8a3-56bf-ba17-04c5f4611f79" class="er entityLabel">buildings</text><rect height="21" width="36.947052001953125" y="24" x="0" class="er attributeBoxOdd"/><text style="dominant-baseline: middle; font-size: 10.2px;" transform="translate(5,34.5)" y="0" x="0" id="text-entity-buildings-7e60d4df-d8a3-56bf-ba17-04c5f4611f79-attr-1-type" class="er entityLabel">String</text><rect height="21" width="59.28125" y="24" x="36.947052001953125" class="er attributeBoxOdd"/><text style="dominant-baseline: middle; font-size: 10.2px;" transform="translate(41.947052001953125,34.5)" y="0" x="0" id="text-entity-buildings-7e60d4df-d8a3-56bf-ba17-04c5f4611f79-attr-1-name" class="er entityLabel">id</text><rect height="21" width="23.79498291015625" y="24" x="96.22830200195312" class="er attributeBoxOdd"/><text style="dominant-baseline: middle; font-size: 10.2px;" transform="translate(101.22830200195312,34.5)" y="0" x="0" id="text-entity-buildings-7e60d4df-d8a3-56bf-ba17-04c5f4611f79-attr-1-key" class="er entityLabel">PK</text><rect height="21" width="45.453216552734375" y="24" x="120.02328491210938" class="er attributeBoxOdd"/><text style="dominant-baseline: middle; font-size: 10.2px;" transform="translate(125.02328491210938,34.5)" y="0" x="0" id="text-entity-buildings-7e60d4df-d8a3-56bf-ba17-04c5f4611f79-attr-1-comment" class="er entityLabel"/><rect height="21" width="36.947052001953125" y="45" x="0" class="er attributeBoxEven"/><text style="dominant-baseline: middle; font-size: 10.2px;" transform="translate(5,55.5)" y="0" x="0" id="text-entity-buildings-7e60d4df-d8a3-56bf-ba17-04c5f4611f79-attr-2-type" class="er entityLabel">String</text><rect height="21" width="59.28125" y="45" x="36.947052001953125" class="er attributeBoxEven"/><text style="dominant-baseline: middle; font-size: 10.2px;" transform="translate(41.947052001953125,55.5)" y="0" x="0" id="text-entity-buildings-7e60d4df-d8a3-56bf-ba17-04c5f4611f79-attr-2-name" class="er entityLabel">name</text><rect height="21" width="23.79498291015625" y="45" x="96.22830200195312" class="er attributeBoxEven"/><text style="dominant-baseline: middle; font-size: 10.2px;" transform="translate(101.22830200195312,55.5)" y="0" x="0" id="text-entity-buildings-7e60d4df-d8a3-56bf-ba17-04c5f4611f79-attr-2-key" class="er entityLabel"/><rect height="21" width="45.453216552734375" y="45" x="120.02328491210938" class="er attributeBoxEven"/><text style="dominant-baseline: middle; font-size: 10.2px;" transform="translate(125.02328491210938,55.5)" y="0" x="0" id="text-entity-buildings-7e60d4df-d8a3-56bf-ba17-04c5f4611f79-attr-2-comment" class="er entityLabel"/><rect height="21" width="36.947052001953125" y="66" x="0" class="er attributeBoxOdd"/><text style="dominant-baseline: middle; font-size: 10.2px;" transform="translate(5,76.5)" y="0" x="0" id="text-entity-buildings-7e60d4df-d8a3-56bf-ba17-04c5f4611f79-attr-3-type" class="er entityLabel">String</text><rect height="21" width="59.28125" y="66" x="36.947052001953125" class="er attributeBoxOdd"/><text style="dominant-baseline: middle; font-size: 10.2px;" transform="translate(41.947052001953125,76.5)" y="0" x="0" id="text-entity-buildings-7e60d4df-d8a3-56bf-ba17-04c5f4611f79-attr-3-name" class="er entityLabel">description</text><rect height="21" width="23.79498291015625" y="66" x="96.22830200195312" class="er attributeBoxOdd"/><text style="dominant-baseline: middle; font-size: 10.2px;" transform="translate(101.22830200195312,76.5)" y="0" x="0" id="text-entity-buildings-7e60d4df-d8a3-56bf-ba17-04c5f4611f79-attr-3-key" class="er entityLabel"/><rect height="21" width="45.453216552734375" y="66" x="120.02328491210938" class="er attributeBoxOdd"/><text style="dominant-baseline: middle; font-size: 10.2px;" transform="translate(125.02328491210938,76.5)" y="0" x="0" id="text-entity-buildings-7e60d4df-d8a3-56bf-ba17-04c5f4611f79-attr-3-comment" class="er entityLabel">nullable</text><rect height="21" width="36.947052001953125" y="87" x="0" class="er attributeBoxEven"/><text style="dominant-baseline: middle; font-size: 10.2px;" transform="translate(5,97.5)" y="0" x="0" id="text-entity-buildings-7e60d4df-d8a3-56bf-ba17-04c5f4611f79-attr-4-type" class="er entityLabel">Int</text><rect height="21" width="59.28125" y="87" x="36.947052001953125" class="er attributeBoxEven"/><text style="dominant-baseline: middle; font-size: 10.2px;" transform="translate(41.947052001953125,97.5)" y="0" x="0" id="text-entity-buildings-7e60d4df-d8a3-56bf-ba17-04c5f4611f79-attr-4-name" class="er entityLabel">floors</text><rect height="21" width="23.79498291015625" y="87" x="96.22830200195312" class="er attributeBoxEven"/><text style="dominant-baseline: middle; font-size: 10.2px;" transform="translate(101.22830200195312,97.5)" y="0" x="0" id="text-entity-buildings-7e60d4df-d8a3-56bf-ba17-04c5f4611f79-attr-4-key" class="er entityLabel"/><rect height="21" width="45.453216552734375" y="87" x="120.02328491210938" class="er attributeBoxEven"/><text style="dominant-baseline: middle; font-size: 10.2px;" transform="translate(125.02328491210938,97.5)" y="0" x="0" id="text-entity-buildings-7e60d4df-d8a3-56bf-ba17-04c5f4611f79-attr-4-comment" class="er entityLabel"/><rect height="21" width="36.947052001953125" y="108" x="0" class="er attributeBoxOdd"/><text style="dominant-baseline: middle; font-size: 10.2px;" transform="translate(5,118.5)" y="0" x="0" id="text-entity-buildings-7e60d4df-d8a3-56bf-ba17-04c5f4611f79-attr-5-type" class="er entityLabel">String</text><rect height="21" width="59.28125" y="108" x="36.947052001953125" class="er attributeBoxOdd"/><text style="dominant-baseline: middle; font-size: 10.2px;" transform="translate(41.947052001953125,118.5)" y="0" x="0" id="text-entity-buildings-7e60d4df-d8a3-56bf-ba17-04c5f4611f79-attr-5-name" class="er entityLabel">amenities</text><rect height="21" width="23.79498291015625" y="108" x="96.22830200195312" class="er attributeBoxOdd"/><text style="dominant-baseline: middle; font-size: 10.2px;" transform="translate(101.22830200195312,118.5)" y="0" x="0" id="text-entity-buildings-7e60d4df-d8a3-56bf-ba17-04c5f4611f79-attr-5-key" class="er entityLabel"/><rect height="21" width="45.453216552734375" y="108" x="120.02328491210938" class="er attributeBoxOdd"/><text style="dominant-baseline: middle; font-size: 10.2px;" transform="translate(125.02328491210938,118.5)" y="0" x="0" id="text-entity-buildings-7e60d4df-d8a3-56bf-ba17-04c5f4611f79-attr-5-comment" class="er entityLabel"/><rect height="21" width="36.947052001953125" y="129" x="0" class="er attributeBoxEven"/><text style="dominant-baseline: middle; font-size: 10.2px;" transform="translate(5,139.5)" y="0" x="0" id="text-entity-buildings-7e60d4df-d8a3-56bf-ba17-04c5f4611f79-attr-6-type" class="er entityLabel">String</text><rect height="21" width="59.28125" y="129" x="36.947052001953125" class="er attributeBoxEven"/><text style="dominant-baseline: middle; font-size: 10.2px;" transform="translate(41.947052001953125,139.5)" y="0" x="0" id="text-entity-buildings-7e60d4df-d8a3-56bf-ba17-04c5f4611f79-attr-6-name" class="er entityLabel">image</text><rect height="21" width="23.79498291015625" y="129" x="96.22830200195312" class="er attributeBoxEven"/><text style="dominant-baseline: middle; font-size: 10.2px;" transform="translate(101.22830200195312,139.5)" y="0" x="0" id="text-entity-buildings-7e60d4df-d8a3-56bf-ba17-04c5f4611f79-attr-6-key" class="er entityLabel"/><rect height="21" width="45.453216552734375" y="129" x="120.02328491210938" class="er attributeBoxEven"/><text style="dominant-baseline: middle; font-size: 10.2px;" transform="translate(125.02328491210938,139.5)" y="0" x="0" id="text-entity-buildings-7e60d4df-d8a3-56bf-ba17-04c5f4611f79-attr-6-comment" class="er entityLabel"/></g><g transform="translate(299.9815368652344,20 )" id="entity-Apartament-42d7d1eb-7acb-5bb7-8b2a-0cfa52d8d851"><rect height="192" width="148.59185791015625" y="0" x="0" class="er entityBox"/><text style="dominant-baseline: middle; text-anchor: middle; font-size: 12px;" transform="translate(74.29592895507812,12)" y="0" x="0" id="text-entity-Apartament-42d7d1eb-7acb-5bb7-8b2a-0cfa52d8d851" class="er entityLabel">Apartament</text><rect height="21" width="47.390625" y="24" x="0" class="er attributeBoxOdd"/><text style="dominant-baseline: middle; font-size: 10.2px;" transform="translate(5,34.5)" y="0" x="0" id="text-entity-Apartament-42d7d1eb-7acb-5bb7-8b2a-0cfa52d8d851-attr-1-type" class="er entityLabel">String</text><rect height="21" width="77.40625" y="24" x="47.390625" class="er attributeBoxOdd"/><text style="dominant-baseline: middle; font-size: 10.2px;" transform="translate(52.390625,34.5)" y="0" x="0" id="text-entity-Apartament-42d7d1eb-7acb-5bb7-8b2a-0cfa52d8d851-attr-1-name" class="er entityLabel">id</text><rect height="21" width="23.79498291015625" y="24" x="124.796875" class="er attributeBoxOdd"/><text style="dominant-baseline: middle; font-size: 10.2px;" transform="translate(129.796875,34.5)" y="0" x="0" id="text-entity-Apartament-42d7d1eb-7acb-5bb7-8b2a-0cfa52d8d851-attr-1-key" class="er entityLabel">PK</text><rect height="21" width="47.390625" y="45" x="0" class="er attributeBoxEven"/><text style="dominant-baseline: middle; font-size: 10.2px;" transform="translate(5,55.5)" y="0" x="0" id="text-entity-Apartament-42d7d1eb-7acb-5bb7-8b2a-0cfa52d8d851-attr-2-type" class="er entityLabel">Int</text><rect height="21" width="77.40625" y="45" x="47.390625" class="er attributeBoxEven"/><text style="dominant-baseline: middle; font-size: 10.2px;" transform="translate(52.390625,55.5)" y="0" x="0" id="text-entity-Apartament-42d7d1eb-7acb-5bb7-8b2a-0cfa52d8d851-attr-2-name" class="er entityLabel">number</text><rect height="21" width="23.79498291015625" y="45" x="124.796875" class="er attributeBoxEven"/><text style="dominant-baseline: middle; font-size: 10.2px;" transform="translate(129.796875,55.5)" y="0" x="0" id="text-entity-Apartament-42d7d1eb-7acb-5bb7-8b2a-0cfa52d8d851-attr-2-key" class="er entityLabel"/><rect height="21" width="47.390625" y="66" x="0" class="er attributeBoxOdd"/><text style="dominant-baseline: middle; font-size: 10.2px;" transform="translate(5,76.5)" y="0" x="0" id="text-entity-Apartament-42d7d1eb-7acb-5bb7-8b2a-0cfa52d8d851-attr-3-type" class="er entityLabel">Int</text><rect height="21" width="77.40625" y="66" x="47.390625" class="er attributeBoxOdd"/><text style="dominant-baseline: middle; font-size: 10.2px;" transform="translate(52.390625,76.5)" y="0" x="0" id="text-entity-Apartament-42d7d1eb-7acb-5bb7-8b2a-0cfa52d8d851-attr-3-name" class="er entityLabel">bedrooms</text><rect height="21" width="23.79498291015625" y="66" x="124.796875" class="er attributeBoxOdd"/><text style="dominant-baseline: middle; font-size: 10.2px;" transform="translate(129.796875,76.5)" y="0" x="0" id="text-entity-Apartament-42d7d1eb-7acb-5bb7-8b2a-0cfa52d8d851-attr-3-key" class="er entityLabel"/><rect height="21" width="47.390625" y="87" x="0" class="er attributeBoxEven"/><text style="dominant-baseline: middle; font-size: 10.2px;" transform="translate(5,97.5)" y="0" x="0" id="text-entity-Apartament-42d7d1eb-7acb-5bb7-8b2a-0cfa52d8d851-attr-4-type" class="er entityLabel">Int</text><rect height="21" width="77.40625" y="87" x="47.390625" class="er attributeBoxEven"/><text style="dominant-baseline: middle; font-size: 10.2px;" transform="translate(52.390625,97.5)" y="0" x="0" id="text-entity-Apartament-42d7d1eb-7acb-5bb7-8b2a-0cfa52d8d851-attr-4-name" class="er entityLabel">bathrooms</text><rect height="21" width="23.79498291015625" y="87" x="124.796875" class="er attributeBoxEven"/><text style="dominant-baseline: middle; font-size: 10.2px;" transform="translate(129.796875,97.5)" y="0" x="0" id="text-entity-Apartament-42d7d1eb-7acb-5bb7-8b2a-0cfa52d8d851-attr-4-key" class="er entityLabel"/><rect height="21" width="47.390625" y="108" x="0" class="er attributeBoxOdd"/><text style="dominant-baseline: middle; font-size: 10.2px;" transform="translate(5,118.5)" y="0" x="0" id="text-entity-Apartament-42d7d1eb-7acb-5bb7-8b2a-0cfa52d8d851-attr-5-type" class="er entityLabel">Int</text><rect height="21" width="77.40625" y="108" x="47.390625" class="er attributeBoxOdd"/><text style="dominant-baseline: middle; font-size: 10.2px;" transform="translate(52.390625,118.5)" y="0" x="0" id="text-entity-Apartament-42d7d1eb-7acb-5bb7-8b2a-0cfa52d8d851-attr-5-name" class="er entityLabel">parkingSpaces</text><rect height="21" width="23.79498291015625" y="108" x="124.796875" class="er attributeBoxOdd"/><text style="dominant-baseline: middle; font-size: 10.2px;" transform="translate(129.796875,118.5)" y="0" x="0" id="text-entity-Apartament-42d7d1eb-7acb-5bb7-8b2a-0cfa52d8d851-attr-5-key" class="er entityLabel"/><rect height="21" width="47.390625" y="129" x="0" class="er attributeBoxEven"/><text style="dominant-baseline: middle; font-size: 10.2px;" transform="translate(5,139.5)" y="0" x="0" id="text-entity-Apartament-42d7d1eb-7acb-5bb7-8b2a-0cfa52d8d851-attr-6-type" class="er entityLabel">Boolean</text><rect height="21" width="77.40625" y="129" x="47.390625" class="er attributeBoxEven"/><text style="dominant-baseline: middle; font-size: 10.2px;" transform="translate(52.390625,139.5)" y="0" x="0" id="text-entity-Apartament-42d7d1eb-7acb-5bb7-8b2a-0cfa52d8d851-attr-6-name" class="er entityLabel">furnished</text><rect height="21" width="23.79498291015625" y="129" x="124.796875" class="er attributeBoxEven"/><text style="dominant-baseline: middle; font-size: 10.2px;" transform="translate(129.796875,139.5)" y="0" x="0" id="text-entity-Apartament-42d7d1eb-7acb-5bb7-8b2a-0cfa52d8d851-attr-6-key" class="er entityLabel"/><rect height="21" width="47.390625" y="150" x="0" class="er attributeBoxOdd"/><text style="dominant-baseline: middle; font-size: 10.2px;" transform="translate(5,160.5)" y="0" x="0" id="text-entity-Apartament-42d7d1eb-7acb-5bb7-8b2a-0cfa52d8d851-attr-7-type" class="er entityLabel">Boolean</text><rect height="21" width="77.40625" y="150" x="47.390625" class="er attributeBoxOdd"/><text style="dominant-baseline: middle; font-size: 10.2px;" transform="translate(52.390625,160.5)" y="0" x="0" id="text-entity-Apartament-42d7d1eb-7acb-5bb7-8b2a-0cfa52d8d851-attr-7-name" class="er entityLabel">petsAllowed</text><rect height="21" width="23.79498291015625" y="150" x="124.796875" class="er attributeBoxOdd"/><text style="dominant-baseline: middle; font-size: 10.2px;" transform="translate(129.796875,160.5)" y="0" x="0" id="text-entity-Apartament-42d7d1eb-7acb-5bb7-8b2a-0cfa52d8d851-attr-7-key" class="er entityLabel"/><rect height="21" width="47.390625" y="171" x="0" class="er attributeBoxEven"/><text style="dominant-baseline: middle; font-size: 10.2px;" transform="translate(5,181.5)" y="0" x="0" id="text-entity-Apartament-42d7d1eb-7acb-5bb7-8b2a-0cfa52d8d851-attr-8-type" class="er entityLabel">Float</text><rect height="21" width="77.40625" y="171" x="47.390625" class="er attributeBoxEven"/><text style="dominant-baseline: middle; font-size: 10.2px;" transform="translate(52.390625,181.5)" y="0" x="0" id="text-entity-Apartament-42d7d1eb-7acb-5bb7-8b2a-0cfa52d8d851-attr-8-name" class="er entityLabel">size</text><rect height="21" width="23.79498291015625" y="171" x="124.796875" class="er attributeBoxEven"/><text style="dominant-baseline: middle; font-size: 10.2px;" transform="translate(129.796875,181.5)" y="0" x="0" id="text-entity-Apartament-42d7d1eb-7acb-5bb7-8b2a-0cfa52d8d851-attr-8-key" class="er entityLabel"/></g><rect height="14" width="53.6875" y="276" x="83.14701843261719" class="er relationshipLabelBox"/><text style="text-anchor: middle; dominant-baseline: middle; font-size: 12px;" y="283" x="109.99076843261719" id="rel1" class="er relationshipLabel">enum:role</text><rect height="14" width="42.703125" y="505" x="352.9259033203125" class="er relationshipLabelBox"/><text style="text-anchor: middle; dominant-baseline: middle; font-size: 12px;" y="512" x="374.2774658203125" id="rel2" class="er relationshipLabel">address</text><rect height="14" width="41.375" y="255" x="353.5899658203125" class="er relationshipLabelBox"/><text style="text-anchor: middle; dominant-baseline: middle; font-size: 12px;" y="262" x="374.2774658203125" id="rel3" class="er relationshipLabel">building</text></svg>